<svg xmlns="http://www.w3.org/2000/svg" viewBox="0 0 17.912 26">
  <defs>
    <style>
      .cls-1 {
        fill: #2141b7;
      }
    </style>
  </defs>
  <g id="facebook-placeholder-for-locate-places-on-maps" transform="translate(-66.904)">
    <path id="Facebook_Places" class="cls-1" d="M84.393,6.471a8.1,8.1,0,0,0-.42-1.04A8.907,8.907,0,0,0,66.9,8.066v1.11c0,.046.016.462.039.67.324,2.588,2.366,5.339,3.891,7.927,1.641,2.773,3.344,5.5,5.031,8.228,1.04-1.779,2.077-3.582,3.093-5.315.277-.509.6-1.017.876-1.5.185-.323.538-.647.7-.947,1.641-3,4.282-6.032,4.282-9.013V8A9.225,9.225,0,0,0,84.393,6.471Zm-8.582,5.57a3.179,3.179,0,0,1-3.043-2.172,3.014,3.014,0,0,1-.085-.809V8.343a3.01,3.01,0,0,1,3.228-2.958A3.273,3.273,0,0,1,79.19,8.713,3.357,3.357,0,0,1,75.812,12.041Z"/>
  </g>
</svg>
