<svg xmlns="http://www.w3.org/2000/svg" viewBox="0 0 21.488 24.349">
  <defs>
    <style>
      .cls-1 {
        fill: #1b3ca6;
      }
    </style>
  </defs>
  <g id="users-group" transform="translate(-111.096 -150.419)">
    <path id="Path_86" data-name="Path 86" class="cls-1" d="M121.11,154.6a5.26,5.26,0,0,1,2.448,3.906,4.241,4.241,0,1,0-2.448-3.906Zm-2.78,8.689a4.243,4.243,0,1,0-4.244-4.243A4.244,4.244,0,0,0,118.33,163.287Zm1.8.289h-3.6a5.44,5.44,0,0,0-5.434,5.434v4.4l.011.069.3.094a24.746,24.746,0,0,0,7.388,1.192,15.162,15.162,0,0,0,6.451-1.211l.284-.144h.03v-4.4A5.439,5.439,0,0,0,120.13,163.576Zm7.021-4.38h-3.573a5.23,5.23,0,0,1-1.614,3.643c2.663.792,4.611,3.261,4.611,7.535a14.784,14.784,0,0,0,6.008-1.341v-4.4A5.439,5.439,0,0,0,127.151,159.2Z"/>
  </g>
</svg>
