<svg id="calendar" xmlns="http://www.w3.org/2000/svg" viewBox="0 0 24 24">
  <defs>
    <style>
      .cls-1 {
        fill: #1b3ca6;
      }
    </style>
  </defs>
  <g id="Group_26" data-name="Group 26">
    <g id="Group_25" data-name="Group 25">
      <path id="Path_25" data-name="Path 25" class="cls-1" d="M21.187,1.875H20.062V0H18.188V1.875H5.813V0H3.938V1.875H2.813A2.816,2.816,0,0,0,0,4.688v16.5A2.816,2.816,0,0,0,2.813,24H21.187A2.816,2.816,0,0,0,24,21.187V4.688A2.816,2.816,0,0,0,21.187,1.875Zm.938,19.312a.939.939,0,0,1-.938.938H2.813a.939.939,0,0,1-.938-.938V8.813h20.25Zm0-14.25H1.875V4.688a.939.939,0,0,1,.938-.938H3.938V5.625H5.813V3.75H18.188V5.625h1.875V3.75h1.125a.939.939,0,0,1,.938.938Z"/>
    </g>
  </g>
  <g id="Group_28" data-name="Group 28" transform="translate(3.563 10.781)">
    <g id="Group_27" data-name="Group 27">
      <rect id="Rectangle_14" data-name="Rectangle 14" class="cls-1" width="1.875" height="1.875"/>
    </g>
  </g>
  <g id="Group_30" data-name="Group 30" transform="translate(7.313 10.781)">
    <g id="Group_29" data-name="Group 29">
      <rect id="Rectangle_15" data-name="Rectangle 15" class="cls-1" width="1.875" height="1.875"/>
    </g>
  </g>
  <g id="Group_32" data-name="Group 32" transform="translate(11.062 10.781)">
    <g id="Group_31" data-name="Group 31">
      <rect id="Rectangle_16" data-name="Rectangle 16" class="cls-1" width="1.875" height="1.875"/>
    </g>
  </g>
  <g id="Group_34" data-name="Group 34" transform="translate(14.813 10.781)">
    <g id="Group_33" data-name="Group 33">
      <rect id="Rectangle_17" data-name="Rectangle 17" class="cls-1" width="1.875" height="1.875"/>
    </g>
  </g>
  <g id="Group_36" data-name="Group 36" transform="translate(18.563 10.781)">
    <g id="Group_35" data-name="Group 35">
      <rect id="Rectangle_18" data-name="Rectangle 18" class="cls-1" width="1.875" height="1.875"/>
    </g>
  </g>
  <g id="Group_38" data-name="Group 38" transform="translate(3.563 14.531)">
    <g id="Group_37" data-name="Group 37">
      <rect id="Rectangle_19" data-name="Rectangle 19" class="cls-1" width="1.875" height="1.875"/>
    </g>
  </g>
  <g id="Group_40" data-name="Group 40" transform="translate(7.313 14.531)">
    <g id="Group_39" data-name="Group 39">
      <rect id="Rectangle_20" data-name="Rectangle 20" class="cls-1" width="1.875" height="1.875"/>
    </g>
  </g>
  <g id="Group_42" data-name="Group 42" transform="translate(11.062 14.531)">
    <g id="Group_41" data-name="Group 41">
      <rect id="Rectangle_21" data-name="Rectangle 21" class="cls-1" width="1.875" height="1.875"/>
    </g>
  </g>
  <g id="Group_44" data-name="Group 44" transform="translate(14.813 14.531)">
    <g id="Group_43" data-name="Group 43">
      <rect id="Rectangle_22" data-name="Rectangle 22" class="cls-1" width="1.875" height="1.875"/>
    </g>
  </g>
  <g id="Group_46" data-name="Group 46" transform="translate(3.563 18.281)">
    <g id="Group_45" data-name="Group 45">
      <rect id="Rectangle_23" data-name="Rectangle 23" class="cls-1" width="1.875" height="1.875"/>
    </g>
  </g>
  <g id="Group_48" data-name="Group 48" transform="translate(7.313 18.281)">
    <g id="Group_47" data-name="Group 47">
      <rect id="Rectangle_24" data-name="Rectangle 24" class="cls-1" width="1.875" height="1.875"/>
    </g>
  </g>
  <g id="Group_50" data-name="Group 50" transform="translate(11.062 18.281)">
    <g id="Group_49" data-name="Group 49">
      <rect id="Rectangle_25" data-name="Rectangle 25" class="cls-1" width="1.875" height="1.875"/>
    </g>
  </g>
  <g id="Group_52" data-name="Group 52" transform="translate(14.813 18.281)">
    <g id="Group_51" data-name="Group 51">
      <rect id="Rectangle_26" data-name="Rectangle 26" class="cls-1" width="1.875" height="1.875"/>
    </g>
  </g>
  <g id="Group_54" data-name="Group 54" transform="translate(18.563 14.531)">
    <g id="Group_53" data-name="Group 53">
      <rect id="Rectangle_27" data-name="Rectangle 27" class="cls-1" width="1.875" height="1.875"/>
    </g>
  </g>
</svg>
